<svg width="208" height="25" viewBox="0 0 208 25" fill="none" xmlns="http://www.w3.org/2000/svg">
<path d="M21.9002 9.82924C22.1664 8.81237 22.2295 7.753 22.0857 6.71173C21.942 5.67047 21.5943 4.66777 21.0626 3.76105C20.2285 2.30482 18.4212 0.0249023 16.5723 0.0249023H0.432101L0.404297 11.7964L12.5894 24.1587H20.5656L11.9464 14.8409H15.123C17.9729 14.8409 21.1321 12.5922 21.9002 9.82924ZM6.01721 9.6659V5.36324H14.6781C14.9691 5.35157 15.2594 5.39879 15.5316 5.50208C15.8039 5.60537 16.0524 5.7626 16.2624 5.96433C16.4724 6.16605 16.6395 6.40813 16.7536 6.67601C16.8677 6.9439 16.9265 7.23209 16.9265 7.52327C16.9265 7.81445 16.8677 8.10262 16.7536 8.3705C16.6395 8.63839 16.4724 8.88046 16.2624 9.08219C16.0524 9.28392 15.8039 9.44114 15.5316 9.54443C15.2594 9.64773 14.9691 9.69494 14.6781 9.68327L6.01721 9.6659Z" fill="white"/>
<path d="M20.1276 14.3544C19.8614 15.3712 19.7984 16.4306 19.9421 17.4719C20.0858 18.5131 20.4335 19.5158 20.9652 20.4225C21.7994 21.8788 23.6066 24.1587 25.4556 24.1587H41.5957L41.6235 12.3872L29.4385 0.0249138H21.4622L30.0814 9.34269H26.9048C24.0549 9.34269 20.8957 11.5913 20.1276 14.3544ZM36.0106 14.5177V18.8203H27.3497C27.0588 18.832 26.7685 18.7848 26.4962 18.6815C26.224 18.5782 25.9754 18.421 25.7654 18.2193C25.5554 18.0175 25.3884 17.7755 25.2742 17.5076C25.1601 17.2397 25.1013 16.9515 25.1013 16.6603C25.1013 16.3691 25.1601 16.081 25.2742 15.8131C25.3884 15.5452 25.5554 15.3031 25.7654 15.1014C25.9754 14.8997 26.224 14.7424 26.4962 14.6392C26.7685 14.5359 27.0588 14.4886 27.3497 14.5003L36.0106 14.5177Z" fill="#0045E6"/>
<path d="M61.717 20.0918H57.8081L54.6666 14.4083H52.1726V20.0918H48.7673V4.09656H56.2493C59.5827 4.09656 61.621 6.27882 61.621 9.25245C61.621 12.0822 59.8465 13.593 58.1198 14.0007L61.717 20.0918ZM55.7457 11.4107C57.1126 11.4107 58.1438 10.5954 58.1438 9.25245C58.1438 7.90952 57.1126 7.09417 55.7457 7.09417H52.1726V11.4107H55.7457ZM68.5828 20.3796C65.0576 20.3796 62.3957 18.0055 62.3957 14.2884C62.3957 10.9311 64.8658 8.22127 68.391 8.22127C71.8442 8.22127 74.1943 10.8112 74.1943 14.6002V15.2716H65.5852C65.777 16.7345 66.9521 17.9575 68.9185 17.9575C69.9017 17.9575 71.2687 17.5258 72.0121 16.8064L73.355 18.7728C72.2039 19.828 70.3814 20.3796 68.5828 20.3796ZM71.2447 13.2093C71.1727 12.1062 70.4053 10.6433 68.391 10.6433C66.4965 10.6433 65.6811 12.0582 65.5372 13.2093H71.2447ZM89.5597 20.0918H86.3223L83.8762 12.2021L81.4302 20.0918H78.1688L74.6436 8.50904H77.8091L79.9673 16.3028L82.5093 8.50904H85.2191L87.7611 16.3028L89.9194 8.50904H93.0849L89.5597 20.0918ZM95.856 7.26204C94.8728 7.26204 94.0334 6.44669 94.0334 5.43949C94.0334 4.4323 94.8728 3.64093 95.856 3.64093C96.8632 3.64093 97.6785 4.4323 97.6785 5.43949C97.6785 6.44669 96.8632 7.26204 95.856 7.26204ZM97.3907 20.0918H94.3452V8.50904H97.3907V20.0918ZM103.216 20.0918H100.171V8.50904H103.216V10.0918C104.032 9.0606 105.471 8.22127 106.909 8.22127V11.1949C106.694 11.1469 106.406 11.123 106.07 11.123C105.063 11.123 103.72 11.6985 103.216 12.4419V20.0918ZM114.016 20.3796C110.491 20.3796 107.829 18.0055 107.829 14.2884C107.829 10.9311 110.299 8.22127 113.824 8.22127C117.278 8.22127 119.628 10.8112 119.628 14.6002V15.2716H111.019C111.21 16.7345 112.386 17.9575 114.352 17.9575C115.335 17.9575 116.702 17.5258 117.445 16.8064L118.788 18.7728C117.637 19.828 115.815 20.3796 114.016 20.3796ZM116.678 13.2093C116.606 12.1062 115.839 10.6433 113.824 10.6433C111.93 10.6433 111.115 12.0582 110.971 13.2093H116.678ZM127.967 20.0918H121.66V4.09656H127.967C132.979 4.09656 136.456 7.28602 136.456 12.1062C136.456 16.9263 132.979 20.0918 127.967 20.0918ZM127.967 17.0942C131.132 17.0942 132.979 14.816 132.979 12.1062C132.979 9.27643 131.252 7.09417 127.967 7.09417H125.065V17.0942H127.967ZM144.004 20.3796C140.479 20.3796 137.817 18.0055 137.817 14.2884C137.817 10.9311 140.287 8.22127 143.813 8.22127C147.266 8.22127 149.616 10.8112 149.616 14.6002V15.2716H141.007C141.199 16.7345 142.374 17.9575 144.34 17.9575C145.323 17.9575 146.69 17.5258 147.434 16.8064L148.777 18.7728C147.626 19.828 145.803 20.3796 144.004 20.3796ZM146.666 13.2093C146.594 12.1062 145.827 10.6433 143.813 10.6433C141.918 10.6433 141.103 12.0582 140.959 13.2093H146.666ZM157.859 20.0918H154.574L149.921 8.50904H153.183L156.204 16.5666L159.226 8.50904H162.511L157.859 20.0918Z" fill="white"/>
<path d="M178.492 20.0918H168.324V4.09656H171.729V17.0942H178.492V20.0918ZM190.805 20.0918H180.637V4.09656H184.042V17.0942H190.805V20.0918ZM200.039 20.3796C195.243 20.3796 191.526 17.0222 191.526 12.1062C191.526 7.1901 195.243 3.83278 200.039 3.83278C203.565 3.83278 205.603 5.75124 206.73 7.74165L203.804 9.18051C203.133 7.88554 201.694 6.85436 200.039 6.85436C197.138 6.85436 195.027 9.08458 195.027 12.1062C195.027 15.1278 197.138 17.358 200.039 17.358C201.694 17.358 203.133 16.3508 203.804 15.0318L206.73 16.4467C205.579 18.4371 203.565 20.3796 200.039 20.3796Z" fill="white"/>
</svg>
